<svg xmlns="http://www.w3.org/2000/svg" viewBox="0 0 512 512" role="img" aria-label="WonderQuest">
  <defs>
    <linearGradient id="sky" x1="0" y1="0" x2="1" y2="1">
      <stop offset="0" stop-color="#4f46e5"/>
      <stop offset="1" stop-color="#7c3aed"/>
    </linearGradient>
  </defs>
  <rect width="512" height="512" rx="112" fill="url(#sky)"/>
  <circle cx="126" cy="118" r="9" fill="#fff" opacity=".9"/>
  <circle cx="196" cy="76" r="5" fill="#fff" opacity=".7"/>
  <circle cx="392" cy="150" r="7" fill="#fff" opacity=".8"/>
  <circle cx="430" cy="92" r="4" fill="#fff" opacity=".6"/>
  <circle cx="96" cy="212" r="5" fill="#fff" opacity=".6"/>
  <!-- big star -->
  <path d="M304 96 l22 52 56 6 -42 38 12 55 -48-29 -48 29 12-55 -42-38 56-6z" fill="#ffd23f"/>
  <!-- magnifying glass -->
  <circle cx="224" cy="292" r="88" fill="none" stroke="#fff" stroke-width="26"/>
  <circle cx="224" cy="292" r="62" fill="#ffffff" opacity=".18"/>
  <rect x="286" y="352" width="128" height="30" rx="15" fill="#fff" transform="rotate(42 286 352)"/>
  <!-- question mark inside the lens -->
  <path d="M206 262c0-14 11-24 26-24s25 9 25 22c0 20-24 20-24 40" fill="none" stroke="#ffd23f" stroke-width="16" stroke-linecap="round"/>
  <circle cx="233" cy="330" r="10" fill="#ffd23f"/>
</svg>
